HIERARCHY
ROOT hip
{
  OFFSET 0 0 0
  CHANNELS 6 Xposition Yposition Zposition Zrotation Yrotation Xrotation
  JOINT abdomen
  {
    OFFSET 0 20.6881 -0.73152
    CHANNELS 3 Zrotation Xrotation Yrotation
    JOINT chest
    {
      OFFSET 0 11.7043 -0.48768
      CHANNELS 3 Zrotation Xrotation Yrotation
      JOINT neck
      {
        OFFSET 0 22.1894 -2.19456
        CHANNELS 3 Zrotation Xrotation Yrotation
        JOINT head
        {
          OFFSET -0.24384 7.07133 1.2192
          CHANNELS 3 Zrotation Xrotation Yrotation
          JOINT leftEye
          {
            OFFSET 4.14528 8.04674 8.04672
            CHANNELS 3 Zrotation Xrotation Yrotation
            End Site
            {
              OFFSET 1 0 0
            }
          }
          JOINT rightEye
          {
            OFFSET -3.6576 8.04674 8.04672
            CHANNELS 3 Zrotation Xrotation Yrotation
            End Site
            {
              OFFSET 1 0 0
            }
          }
        }
      }
      JOINT rCollar
      {
        OFFSET -2.68224 19.2634 -4.8768
        CHANNELS 3 Zrotation Xrotation Yrotation
        JOINT rShldr
        {
          OFFSET -8.77824 -1.95073 1.46304
          CHANNELS 3 Zrotation Xrotation Yrotation
          JOINT rForeArm
          {
            OFFSET -28.1742 -1.7115 0.48768
            CHANNELS 3 Zrotation Xrotation Yrotation
            JOINT rHand
            {
              OFFSET -22.5879 0.773209 7.07136
              CHANNELS 3 Zrotation Xrotation Yrotation
              JOINT rThumb1
              {
                OFFSET -1.2192 -0.487915 3.41376
                CHANNELS 3 Zrotation Xrotation Yrotation
                JOINT rThumb2
                {
                  OFFSET -3.37035 -0.52449 3.41376
                  CHANNELS 3 Zrotation Xrotation Yrotation
                  End Site
                  {
                    OFFSET -1.78271 -1.18214 1.43049
                  }
                }
              }
              JOINT rIndex1
              {
                OFFSET -7.75947 0.938293 5.60832
                CHANNELS 3 Zrotation Xrotation Yrotation
                JOINT rIndex2
                {
                  OFFSET -2.54057 -0.884171 1.56538
                  CHANNELS 3 Zrotation Xrotation Yrotation
                  End Site
                  {
                    OFFSET -1.62519 -0.234802 1.16502
                  }
                }
              }
              JOINT rMid1
              {
                OFFSET -8.24714 1.18213 3.41376
                CHANNELS 3 Zrotation Xrotation Yrotation
                JOINT rMid2
                {
                  OFFSET -3.10165 -0.590103 1.0647
                  CHANNELS 3 Zrotation Xrotation Yrotation
                  End Site
                  {
                    OFFSET -2.48547 -0.328903 0.83742
                  }
                }
              }
              JOINT rRing1
              {
                OFFSET -8.82822 0.546677 1.51678
                CHANNELS 3 Zrotation Xrotation Yrotation
                JOINT rRing2
                {
                  OFFSET -2.60934 -0.819778 -0.0198488
                  CHANNELS 3 Zrotation Xrotation Yrotation
                  End Site
                  {
                    OFFSET -2.33842 -0.294052 0.168128
                  }
                }
              }
              JOINT rPinky1
              {
                OFFSET -8.27202 -0.0477905 -0.4584
                CHANNELS 3 Zrotation Xrotation Yrotation
                JOINT rPinky2
                {
                  OFFSET -1.82734 -0.647385 -0.700984
                  CHANNELS 3 Zrotation Xrotation Yrotation
                  End Site
                  {
                    OFFSET -1.69225 -0.51767 -0.607171
                  }
                }
              }
            }
          }
        }
      }
      JOINT lCollar
      {
        OFFSET 2.68224 19.2634 -4.8768
        CHANNELS 3 Zrotation Xrotation Yrotation
        JOINT lShldr
        {
          OFFSET 8.77824 -1.95073 1.46304
          CHANNELS 3 Zrotation Xrotation Yrotation
          JOINT lForeArm
          {
            OFFSET 28.1742 -1.7115 0.48768
            CHANNELS 3 Zrotation Xrotation Yrotation
            JOINT lHand
            {
              OFFSET 22.5879 0.773209 7.07136
              CHANNELS 3 Zrotation Xrotation Yrotation
              JOINT lThumb1
              {
                OFFSET 1.2192 -0.487915 3.41376
                CHANNELS 3 Zrotation Xrotation Yrotation
                JOINT lThumb2
                {
                  OFFSET 3.37035 -0.52449 3.41376
                  CHANNELS 3 Zrotation Xrotation Yrotation
                  End Site
                  {
                    OFFSET 1.78271 -1.18214 1.43049
                  }
                }
              }
              JOINT lIndex1
              {
                OFFSET 7.75947 0.938293 5.60832
                CHANNELS 3 Zrotation Xrotation Yrotation
                JOINT lIndex2
                {
                  OFFSET 2.54057 -0.884171 1.56538
                  CHANNELS 3 Zrotation Xrotation Yrotation
                  End Site
                  {
                    OFFSET 1.62519 -0.234802 1.16502
                  }
                }
              }
              JOINT lMid1
              {
                OFFSET 8.24714 1.18213 3.41376
                CHANNELS 3 Zrotation Xrotation Yrotation
                JOINT lMid2
                {
                  OFFSET 3.10165 -0.590103 1.0647
                  CHANNELS 3 Zrotation Xrotation Yrotation
                  End Site
                  {
                    OFFSET 2.48547 -0.328903 0.83742
                  }
                }
              }
              JOINT lRing1
              {
                OFFSET 8.82822 0.546677 1.51678
                CHANNELS 3 Zrotation Xrotation Yrotation
                JOINT lRing2
                {
                  OFFSET 2.60934 -0.819778 -0.0198488
                  CHANNELS 3 Zrotation Xrotation Yrotation
                  End Site
                  {
                    OFFSET 2.33842 -0.294052 0.168128
                  }
                }
              }
              JOINT lPinky1
              {
                OFFSET 8.27202 -0.0477905 -0.4584
                CHANNELS 3 Zrotation Xrotation Yrotation
                JOINT lPinky2
                {
                  OFFSET 1.82734 -0.647385 -0.700984
                  CHANNELS 3 Zrotation Xrotation Yrotation
                  End Site
                  {
                    OFFSET 1.69225 -0.51767 -0.607171
                  }
                }
              }
            }
          }
        }
      }
    }
  }
  JOINT rButtock
  {
    OFFSET -8.77824 4.35084 1.2192
    CHANNELS 3 Zrotation Xrotation Yrotation
    JOINT rThigh
    {
      OFFSET 0 -1.70687 -2.19456
      CHANNELS 3 Zrotation Xrotation Yrotation
      JOINT rShin
      {
        OFFSET 0 -36.8199 0.73152
        CHANNELS 3 Zrotation Xrotation Yrotation
        JOINT rFoot
        {
          OFFSET 0.73152 -45.1104 -5.12064
          CHANNELS 3 Zrotation Xrotation Yrotation
          End Site
          {
            OFFSET -1.1221 -3.69964 12.103
          }
        }
      }
    }
  }
  JOINT lButtock
  {
    OFFSET 8.77824 4.35084 1.2192
    CHANNELS 3 Zrotation Xrotation Yrotation
    JOINT lThigh
    {
      OFFSET 0 -1.70687 -2.19456
      CHANNELS 3 Zrotation Xrotation Yrotation
      JOINT lShin
      {
        OFFSET 0 -36.8199 0.73152
        CHANNELS 3 Zrotation Xrotation Yrotation
        JOINT lFoot
        {
          OFFSET -0.73152 -45.1104 -5.12064
          CHANNELS 3 Zrotation Xrotation Yrotation
          End Site
          {
            OFFSET 1.1221 -3.69964 12.103
          }
        }
      }
    }
  }
}
MOTION
Frames:	7
Frame Time:	0.00833333
10.3709 81.0898 -3.64033 -183.963 231.938 -166.272 -2.74128 12.5806 -7.78997 6.89485 -1.17835 -2.24548 -13.0385 8.74117 -1.20091 7.098 25.4717 -5.09682 -0.0 0.0 0.0 -0.0 0.0 0.0 -4.12793e-14 3.03826e-13 1.97216e-13 74.0492 33.4667 -7.3409 -24.9028 -20.8894 52.6024 -0.429562 18.3355 2.66919 -2.21913e-09 1.86235e-09 7.84577e-10 -3.82455e-09 3.22242e-09 1.38784e-09 -2.21913e-09 1.86235e-09 7.84571e-10 7.73091 5.47488 0.417314 -2.21913e-09 1.86235e-09 7.84573e-10 2.90554 0.965183 0.102902 -2.21912e-09 1.86235e-09 7.84573e-10 10.2786 0.731801 0.0259123 -2.21913e-09 1.86235e-09 7.84577e-10 2.22167 -0.733487 -0.20892 -4.13593e-14 3.0384e-13 1.97059e-13 -67.4757 46.3196 -11.218 20.6019 -13.7881 -40.1621 0.0253641 4.54427 -0.640011 8.53712e-10 -1.96558e-09 -1.07996e-09 1.47664e-09 -3.40086e-09 -1.87208e-09 8.53695e-10 -1.96558e-09 -1.07994e-09 -7.73091 5.47488 -0.417314 8.53706e-10 -1.96559e-09 -1.07996e-09 -2.90554 0.965183 -0.102902 8.53702e-10 -1.96559e-09 -1.07996e-09 -10.2786 0.731801 -0.0259123 8.53711e-10 -1.96559e-09 -1.07996e-09 -2.22167 -0.733487 0.20892 -2.03217e-16 0.0 -3.88251e-19 -23.6212 -38.8537 3.02865 -0.2562 30.5087 0.133017 3.59993 14.7521 -24.1051 2.03217e-16 0.0 3.88251e-19 12.8523 -29.4584 -3.80886 0.127326 32.8245 -0.809881 -3.15262 -11.6197 -11.2533
9.88912 80.9178 -4.10077 -184.02 231.766 -166.133 -2.71571 12.7038 -7.42086 6.6727 -1.22553 -2.14272 -13.0055 8.77996 -1.21372 7.39511 25.4337 -5.15754 -0.0 0.0 0.0 -0.0 0.0 0.0 -1.1445e-13 1.91619e-13 2.95891e-13 74.172 34.0303 -7.35029 -25.0637 -21.2334 53.176 -0.478224 19.2703 2.81636 -2.17775e-09 2.07473e-09 8.59631e-10 -3.7526e-09 3.58879e-09 1.51855e-09 -2.17775e-09 2.07473e-09 8.59624e-10 7.73091 5.47488 0.417314 -2.17775e-09 2.07473e-09 8.59624e-10 2.90554 0.965183 0.102902 -2.17774e-09 2.07473e-09 8.59625e-10 10.2786 0.731801 0.0259123 -2.17775e-09 2.07473e-09 8.59628e-10 2.22167 -0.733487 -0.20892 -1.14508e-13 1.91637e-13 2.95692e-13 -67.2156 46.7981 -11.1838 20.6357 -13.833 -40.2465 0.0283648 4.802 -0.676477 1.28005e-09 -2.19599e-09 -1.08865e-09 2.21326e-09 -3.79954e-09 -1.88892e-09 1.28003e-09 -2.19599e-09 -1.08863e-09 -7.73091 5.47488 -0.417314 1.28004e-09 -2.19601e-09 -1.08865e-09 -2.90554 0.965183 -0.102902 1.28004e-09 -2.19601e-09 -1.08865e-09 -10.2786 0.731801 -0.0259123 1.28005e-09 -2.19601e-09 -1.08866e-09 -2.22167 -0.733487 0.20892 -2.03217e-16 0.0 -3.88251e-19 -23.2845 -38.0354 3.52437 -0.246684 30.1223 0.158884 2.96339 13.6653 -22.9917 2.03217e-16 0.0 3.88251e-19 13.2973 -29.7487 -3.93091 0.135233 33.1154 -0.801988 -3.17985 -11.7734 -11.1704
9.44633 80.7027 -4.51911 -183.735 231.4 -166.4 -2.74505 12.9172 -7.03202 6.49793 -1.3031 -2.03517 -13.0378 8.79219 -1.23947 7.74994 25.496 -5.25579 -0.0 0.0 0.0 -0.0 0.0 0.0 -1.96565e-13 1.736e-13 4.5614e-13 74.236 34.7236 -7.31743 -25.2033 -21.5386 53.6886 -0.522457 20.1006 2.94804 -1.77694e-09 2.0284e-09 8.08517e-10 -3.06073e-09 3.5063e-09 1.42531e-09 -1.77694e-09 2.0284e-09 8.08511e-10 7.73091 5.47488 0.417314 -1.77694e-09 2.0284e-09 8.08513e-10 2.90554 0.965183 0.102902 -1.77693e-09 2.0284e-09 8.08513e-10 10.2786 0.731801 0.0259123 -1.77694e-09 2.0284e-09 8.08516e-10 2.22167 -0.733487 -0.20892 -1.96603e-13 1.73621e-13 4.5591e-13 -66.9726 47.2443 -11.1713 20.668 -13.8757 -40.328 0.0314399 5.05718 -0.712606 1.59979e-09 -2.41556e-09 -1.13429e-09 2.76441e-09 -4.1794e-09 -1.9696e-09 1.59977e-09 -2.41555e-09 -1.13427e-09 -7.73091 5.47488 -0.417314 1.59978e-09 -2.41557e-09 -1.13429e-09 -2.90554 0.965183 -0.102902 1.59978e-09 -2.41557e-09 -1.13429e-09 -10.2786 0.731801 -0.0259123 1.59979e-09 -2.41557e-09 -1.1343e-09 -2.22167 -0.733487 0.20892 -2.03217e-16 0.0 -3.88251e-19 -23.0161 -37.1219 3.80716 -0.235573 29.7474 0.201549 2.00426 11.7403 -21.5711 2.03217e-16 0.0 3.88251e-19 13.6636 -30.0635 -4.08359 0.145726 33.533 -0.79557 -3.22888 -11.9152 -11.1675
8.98797 80.4593 -4.9152 -183.524 231.158 -166.578 -2.80991 13.1934 -6.61216 6.34407 -1.40141 -1.91945 -13.1132 8.78964 -1.2723 8.14019 25.6261 -5.37675 -0.0 0.0 0.0 -0.0 0.0 0.0 -2.95055e-13 2.25088e-13 6.8358e-13 74.2603 35.4993 -7.25161 -25.3283 -21.8184 54.153 -0.568225 20.9247 3.08006 -1.18217e-09 1.87859e-09 6.81491e-10 -2.03446e-09 3.24399e-09 1.19779e-09 -1.18217e-09 1.8786e-09 6.81484e-10 7.73091 5.47488 0.417314 -1.18217e-09 1.8786e-09 6.8149e-10 2.90554 0.965183 0.102902 -1.18216e-09 1.8786e-09 6.81491e-10 10.2786 0.731801 0.0259123 -1.18217e-09 1.8786e-09 6.81494e-10 2.22167 -0.733487 -0.20892 -2.95072e-13 2.2511e-13 6.83322e-13 -66.7388 47.6575 -11.1726 20.6992 -13.9168 -40.4073 0.0348008 5.3207 -0.74995 1.89099e-09 -2.68783e-09 -1.23124e-09 3.26542e-09 -4.65033e-09 -2.13913e-09 1.89098e-09 -2.68783e-09 -1.23123e-09 -7.73091 5.47488 -0.417314 1.89099e-09 -2.68783e-09 -1.23124e-09 -2.90554 0.965183 -0.102902 1.89099e-09 -2.68784e-09 -1.23125e-09 -10.2786 0.731801 -0.0259123 1.891e-09 -2.68784e-09 -1.23126e-09 -2.22167 -0.733487 0.20892 -2.03217e-16 0.0 -3.88251e-19 -22.7604 -36.1532 3.94975 -0.222266 29.3754 0.258534 0.880318 9.11113 -19.8888 2.03217e-16 0.0 3.88251e-19 13.9783 -30.4001 -4.25599 0.158325 34.0596 -0.790792 -3.28837 -12.0591 -11.1952
8.5201 80.1748 -5.36431 -183.453 230.97 -166.557 -2.8809 13.494 -6.18102 6.18939 -1.51012 -1.80031 -13.1618 8.79146 -1.29533 8.47658 25.7254 -5.46663 -0.0 0.0 0.0 -0.0 0.0 0.0 -3.76002e-13 2.79124e-13 8.78614e-13 74.2299 36.3647 -7.15384 -25.4533 -22.1046 54.6168 -0.612467 21.6771 3.20206 -5.10216e-10 1.5928e-09 4.78726e-10 -8.76072e-10 2.74781e-09 8.37863e-10 -5.10217e-10 1.5928e-09 4.7872e-10 7.73091 5.47488 0.417314 -5.10218e-10 1.5928e-09 4.7873e-10 2.90554 0.965183 0.102902 -5.10207e-10 1.5928e-09 4.7873e-10 10.2786 0.731801 0.0259123 -5.10222e-10 1.5928e-09 4.78735e-10 2.22167 -0.733487 -0.20892 -3.76003e-13 2.79145e-13 8.78332e-13 -66.495 48.0621 -11.1784 20.7412 -13.9728 -40.5129 0.0383498 5.58311 -0.78717 2.01583e-09 -2.78089e-09 -1.25542e-09 3.47906e-09 -4.81123e-09 -2.18207e-09 2.01583e-09 -2.78089e-09 -1.25541e-09 -7.73091 5.47488 -0.417314 2.01583e-09 -2.78089e-09 -1.25541e-09 -2.90554 0.965183 -0.102902 2.01583e-09 -2.78089e-09 -1.25542e-09 -10.2786 0.731801 -0.0259123 2.01584e-09 -2.78089e-09 -1.25543e-09 -2.22167 -0.733487 0.20892 -2.03217e-16 0.0 -3.88251e-19 -22.5174 -35.2756 3.90055 -0.208825 29.0431 0.316177 -0.11896 6.33362 -18.1888 2.03217e-16 0.0 3.88251e-19 14.2948 -30.775 -4.37707 0.171926 34.6578 -0.788849 -3.34393 -12.1819 -11.225
8.08656 79.866 -5.87277 -183.38 230.803 -166.437 -2.92713 13.7804 -5.75862 6.01205 -1.61888 -1.68254 -13.1134 8.81679 -1.29167 8.66889 25.6951 -5.4712 -0.0 0.0 0.0 -0.0 0.0 0.0 -4.05485e-13 2.68748e-13 9.41643e-13 74.1295 37.3268 -7.02498 -25.5904 -22.4258 55.1292 -0.650982 22.2924 3.3031 1.22128e-10 1.13849e-09 2.00397e-10 2.12155e-10 1.96375e-09 3.47425e-10 1.22128e-10 1.1385e-09 2.00391e-10 7.73091 5.47488 0.417314 1.22126e-10 1.13849e-09 2.00404e-10 2.90554 0.965183 0.102902 1.22137e-10 1.13849e-09 2.00403e-10 10.2786 0.731801 0.0259123 1.2212e-10 1.13849e-09 2.0041e-10 2.22167 -0.733487 -0.20892 -4.05484e-13 2.68766e-13 9.41345e-13 -66.2229 48.4826 -11.1793 20.8058 -14.0601 -40.6737 0.04194 5.83495 -0.822924 1.83648e-09 -2.46281e-09 -1.08271e-09 3.16813e-09 -4.26101e-09 -1.88297e-09 1.83648e-09 -2.4628e-09 -1.08271e-09 -7.73091 5.47488 -0.417314 1.83648e-09 -2.46279e-09 -1.08271e-09 -2.90554 0.965183 -0.102902 1.83648e-09 -2.4628e-09 -1.08272e-09 -10.2786 0.731801 -0.0259123 1.83649e-09 -2.4628e-09 -1.08273e-09 -2.22167 -0.733487 0.20892 -2.03217e-16 0.0 -3.88251e-19 -22.2847 -34.6346 3.60841 -0.197845 28.7873 0.361073 -0.810651 4.00422 -16.6597 2.03217e-16 0.0 3.88251e-19 14.6689 -31.205 -4.37472 0.185519 35.2899 -0.790976 -3.38086 -12.2602 -11.2281
7.63601 79.582 -6.38273 -183.365 230.615 -166.275 -2.96967 14.0356 -5.33387 5.8217 -1.73718 -1.56283 -12.9118 8.91031 -1.24888 8.63871 25.4545 -5.3548 -0.0 0.0 0.0 -0.0 0.0 0.0 -3.42782e-13 1.5796e-13 7.81888e-13 73.954 38.4236 -6.90657 -25.7456 -22.7987 55.7236 -0.678257 22.7104 3.37239 7.45571e-10 3.73093e-10 -2.6298e-10 1.28132e-09 6.47958e-10 -4.6347e-10 7.4557e-10 3.73101e-10 -2.62986e-10 7.73091 5.47488 0.417314 7.45568e-10 3.73099e-10 -2.62974e-10 2.90554 0.965183 0.102902 7.45577e-10 3.73096e-10 -2.62975e-10 10.2786 0.731801 0.0259123 7.45562e-10 3.73094e-10 -2.62966e-10 2.22167 -0.733487 -0.20892 -3.42796e-13 1.57971e-13 7.81586e-13 -65.924 48.9476 -11.1504 20.8941 -14.1796 -40.8964 0.0456411 6.08732 -0.858779 1.04704e-09 -1.3847e-09 -5.62001e-10 1.80453e-09 -2.39617e-09 -9.78908e-10 1.04704e-09 -1.38469e-09 -5.62002e-10 -7.73091 5.47488 -0.417314 1.04704e-09 -1.38469e-09 -5.62005e-10 -2.90554 0.965183 -0.102902 1.04703e-09 -1.38469e-09 -5.62004e-10 -10.2786 0.731801 -0.0259123 1.04705e-09 -1.38469e-09 -5.62015e-10 -2.22167 -0.733487 0.20892 -2.03217e-16 0.0 -3.88251e-19 -22.0592 -34.2481 3.03105 -0.190288 28.5724 0.38832 -1.21332 2.28858 -15.2642 2.03217e-16 0.0 3.88251e-19 15.1324 -31.6741 -4.19016 0.198932 35.924 -0.796971 -3.40039 -12.3048 -11.2061
